<svg xmlns="http://www.w3.org/2000/svg" viewBox="0 0 250 250" class="f-product-icon">
    <title>切花</title>
    <path d="M124.84,161.17a40.25,40.25,0,0,1-7.34,6.31c-2,21.27-1.08,55.09,20.1,76l12.65-12.8c-12.59-12.44-15.35-32.61-15.45-47.35,0-5,.24-9.71.62-13.9A40.17,40.17,0,0,1,124.84,161.17Z"
          class="cls-1"></path>
    <path d="M124.84,73.85a22.58,22.58,0,1,0,22.6,22.58A22.62,22.62,0,0,0,124.84,73.85Z"
          class="cls-2"></path>
    <path d="M154.27,159.39a45.77,45.77,0,0,1,19.9-8.69c7.22-1.24,11.18-.58,12.8-9.25,2.09-11.24-2.26-21.79-8.68-30.68l4.56-1.5A33,33,0,0,0,205.64,78a33.51,33.51,0,0,0-19.11-30c-9.3-4.36-18.53-3.28-28-.37-.69-1.37-.58-2.77-.58-4.43a33.12,33.12,0,0,0-66.24,0l0,4.78c-11.82-3.72-23.62-4.43-34.17,3.31C36.15,67,41.88,101,66.84,109.27l4.57,1.5c-6.27,8.67-10.57,17.78-8.69,28.84a33.47,33.47,0,0,0,32.65,27.53c12.7,0,21.15-7.78,29.06-16.57,1.81,2.92,19.24,20,22.67,15.78A42.17,42.17,0,0,1,154.27,159.39ZM124.84,119a22.58,22.58,0,1,1,22.6-22.58A22.62,22.62,0,0,1,124.84,119Z"
          class="cls-1"></path>
    <ellipse cx="171.47" cy="181.49" rx="34.87" ry="21.58"
             transform="translate(-75.3 143.49) rotate(-37.87)" class="cls-1"></ellipse>
    <style>
        .cls-1 { fill: #689f38 }
        .cls-2 { fill: none }
    </style>
</svg>
