<svg xmlns="http://www.w3.org/2000/svg" viewBox="0 0 250 250" class="f-product-icon">
    <title>鉢物</title>
    <path d="M122.74,184.37c-24.18,0-47-2.48-64.27-7A106.15,106.15,0,0,1,47.58,174c7.27,24.62,14.15,47.87,14.15,51.6,0,12.36,27.31,22.38,61,22.38s61-10,61-22.38c0-5.54,6.74-27.92,13.93-51.51A110.5,110.5,0,0,1,187,177.39C169.74,181.89,146.91,184.37,122.74,184.37Z"
          class="cls-1"></path>
    <ellipse cx="203.33" cy="93.07" rx="34.1" ry="18.72"
             transform="translate(-13.78 146.61) rotate(-38.45)" class="cls-1"></ellipse>
    <path d="M185.62,129.06c-16.14,4.17-33.4,5.9-48.86,6.79a256.35,256.35,0,0,1-51.42-2.17c-13.62-2-31.55-3.56-43.2-11.56,2.41-1.65,7.49-4.28,17.71-6.94,1.46-.39,3-.75,4.53-1.1a35.3,35.3,0,0,1-3.25-10c-19.05,4.42-31.05,10.86-31.05,18,0,6,4.63,26.13,4.63,31.28,0,12.66,39.41,22.93,88,22.93s88-10.27,88-22.93c0-5.15,4.64-25.3,4.64-31.28a7.47,7.47,0,0,0-1.41-4.2A113.17,113.17,0,0,1,185.62,129.06Z"
          class="cls-1"></path>
    <path d="M73.9,81.92a27.72,27.72,0,1,0,44.83,32.63,27.72,27.72,0,1,0,44.83-32.63,27.67,27.67,0,1,0-17-52.64,27.79,27.79,0,0,0-55.58,0,27.66,27.66,0,0,0-17,52.64Zm44.83-32.61A20.35,20.35,0,1,1,98.36,69.66,20.36,20.36,0,0,1,118.73,49.31Z"
          class="cls-1"></path>
    <style>
        .cls-1 { fill: #689f38 }
    </style>
</svg>
